<?xml version="1.0" standalone="no"?><!DOCTYPE svg PUBLIC "-//W3C//DTD SVG 1.1//EN" "http://www.w3.org/Graphics/SVG/1.1/DTD/svg11.dtd"><svg xmlns="http://www.w3.org/2000/svg" viewBox="0 0 650 400" version="1.1"><clipPath id="box"><rect x="0" y="0" width="650" height="400" style="fill:none;stroke:none;" /></clipPath><g clip-path="url(#box)"><rect x="0.00" y="0.00" width="650.00" height="400.00" style="fill:#FFFFFF;stroke:none;" /><path d="M0.00 0.00 L0.00 400.00 " style="fill:none;stroke:#000000;stroke-width:1;" /><path d="M0.00 400.00 L650.00 400.00 " style="fill:none;stroke:#000000;stroke-width:1;" /><path d="M-0.00 400.00 L-0.00 400.00 L0.92 399.00 L1.85 398.00 L2.77 397.00 L3.70 396.00 L4.62 395.00 L5.54 394.00 L6.47 393.00 L7.39 392.00 L8.32 391.00 L9.24 390.00 L10.17 389.00 L11.09 388.00 L12.01 387.00 L12.94 386.00 L13.86 385.00 L14.79 384.00 L15.71 383.00 L16.63 382.00 L17.56 381.00 L18.48 380.00 L19.41 379.00 L20.33 378.00 L21.26 377.00 L22.18 376.00 L23.10 375.00 L24.03 374.00 L24.95 373.00 L25.88 372.00 L26.80 371.00 L27.72 370.00 L28.65 369.00 L29.57 368.00 L30.50 367.00 L31.42 366.00 L32.35 365.00 L33.27 364.00 L34.19 363.00 L35.12 362.00 L36.04 361.00 L36.97 360.00 L37.89 359.00 L38.81 358.00 L39.74 357.00 L40.66 356.00 L41.59 355.00 L42.51 354.00 L43.44 353.00 L44.36 352.00 L45.28 351.00 L46.21 350.00 L47.13 349.00 L48.06 348.00 L48.98 347.00 L49.90 346.00 L50.83 345.00 L51.75 344.00 L52.68 343.00 L53.60 342.00 L54.52 341.00 L55.45 340.00 L56.37 339.00 L57.30 338.00 L58.22 337.00 L59.15 336.00 L60.07 335.00 L60.99 334.00 L61.92 333.00 L62.84 332.00 L63.77 331.00 L64.69 330.00 L65.61 329.00 L66.54 328.00 L67.46 327.00 L68.39 326.00 L69.31 325.00 L70.24 324.00 L71.16 323.00 L72.08 322.00 L73.01 321.00 L73.93 320.00 L74.86 319.00 L75.78 318.00 L76.70 317.00 L77.63 316.00 L78.55 315.00 L79.48 314.00 L80.40 313.00 L81.33 312.00 L82.25 311.00 L83.17 310.00 L84.10 309.00 L85.02 308.00 L85.95 307.00 L86.87 306.00 L87.79 305.00 L88.72 304.00 L89.64 303.00 L90.57 302.00 L91.49 301.00 L92.41 300.00 L93.34 299.00 L94.26 298.00 L95.19 297.00 L96.11 296.00 L97.04 295.00 L97.96 294.00 L98.88 293.00 L99.81 292.00 L100.73 291.00 L101.66 290.00 L102.58 289.00 L103.50 288.00 L104.43 287.00 L105.35 286.00 L106.28 285.00 L107.20 284.00 L108.13 283.00 L109.05 282.00 L109.97 281.00 L110.90 280.00 L111.82 279.00 L112.75 278.00 L113.67 277.00 L114.59 276.00 L115.52 275.00 L116.44 274.00 L117.37 273.00 L118.29 272.00 L119.22 271.00 L120.14 270.00 L121.06 269.00 L121.99 268.00 L122.91 267.00 L123.84 266.00 L124.76 265.00 L125.68 264.00 L126.61 263.00 L127.53 262.00 L128.46 261.00 L129.38 260.00 L130.31 259.00 L131.23 258.00 L132.15 257.00 L133.08 256.00 L134.00 255.00 L134.93 254.00 L135.85 253.00 L136.77 252.00 L137.70 251.00 L138.62 250.00 L139.55 249.00 L140.47 248.00 L141.39 247.00 L142.32 246.00 L143.24 245.00 L144.17 244.00 L145.09 243.00 L146.02 242.00 L146.94 241.00 L147.86 240.00 L148.79 239.00 L149.71 238.00 L150.64 237.00 L151.56 236.00 L152.48 235.00 L153.41 234.00 L154.33 233.00 L155.26 232.00 L156.18 231.00 L157.11 230.00 L158.03 229.00 L158.95 228.00 L159.88 227.00 L160.80 226.00 L161.73 225.00 L162.65 224.00 L163.57 223.00 L164.50 222.00 L165.42 221.00 L166.35 220.00 L167.27 219.00 L168.20 218.00 L169.12 217.00 L170.04 216.00 L170.97 215.00 L171.89 214.00 L172.82 213.00 L173.74 212.00 L174.66 211.00 L175.59 210.00 L176.51 209.00 L177.44 208.00 L178.36 207.00 L179.28 206.00 L180.21 205.00 L181.13 204.00 L182.06 203.00 L182.98 202.00 L183.91 201.00 L184.83 200.00 L185.75 199.00 L186.68 198.00 L187.60 197.00 L188.53 196.00 L189.45 195.00 L190.37 194.00 L191.30 193.00 L192.22 192.00 L193.15 191.00 L194.07 190.00 L195.00 189.00 L195.92 188.00 L196.84 187.00 L197.77 186.00 L198.69 185.00 L199.62 184.00 L200.54 183.00 L201.46 182.00 L202.39 181.00 L203.31 180.00 L204.24 179.00 L205.16 178.00 L206.09 177.00 L207.01 176.00 L207.93 175.00 L208.86 174.00 L209.78 173.00 L210.71 172.00 L211.63 171.00 L212.55 170.00 L213.48 169.00 L214.40 168.00 L215.33 167.00 L216.25 166.00 L217.18 165.00 L218.10 164.00 L219.02 163.00 L219.95 162.00 L220.87 161.00 L221.80 160.00 L222.72 159.00 L223.64 158.00 L224.57 157.00 L225.49 156.00 L226.42 155.00 L227.34 154.00 L228.26 153.00 L229.19 152.00 L230.11 151.00 L231.04 150.00 L231.96 149.00 L232.89 148.00 L233.81 147.00 L234.73 146.00 L235.66 145.00 L236.58 144.00 L237.51 143.00 L238.43 142.00 L239.35 141.00 L240.28 140.00 L241.20 139.00 L242.13 138.00 L243.05 137.00 L243.98 136.00 L244.90 135.00 L245.82 134.00 L246.75 133.00 L247.67 132.00 L248.60 131.00 L249.52 130.00 L250.44 129.00 L251.37 128.00 L252.29 127.00 L253.22 126.00 L254.14 125.00 L255.07 124.00 L255.99 123.00 L256.91 122.00 L257.84 121.00 L258.76 120.00 L259.69 119.00 L260.61 118.00 L261.53 117.00 L262.46 116.00 L263.38 115.00 L264.31 114.00 L265.23 113.00 L266.15 112.00 L267.08 111.00 L268.00 110.00 L268.93 109.00 L269.85 108.00 L270.78 107.00 L271.70 106.00 L272.62 105.00 L273.55 104.00 L274.47 103.00 L275.40 102.00 L276.32 101.00 L277.24 100.00 L278.17 99.00 L279.09 98.00 L280.02 97.00 L280.94 96.00 L281.87 95.00 L282.79 94.00 L283.71 93.00 L284.64 92.00 L285.56 91.00 L286.49 90.00 L287.41 89.00 L288.33 88.00 L289.26 87.00 L290.18 86.00 L291.11 85.00 L292.03 84.00 L292.96 83.00 L293.88 82.00 L294.80 81.00 L295.73 80.00 L296.65 79.00 L297.58 78.00 L298.50 77.00 L299.42 76.00 L300.35 75.00 L301.27 74.00 L302.20 73.00 L303.12 72.00 L304.05 71.00 L304.97 70.00 L305.89 69.00 L306.82 68.00 L307.74 67.00 L308.67 66.00 L309.59 65.00 L310.51 64.00 L311.44 63.00 L312.36 62.00 L313.29 61.00 L314.21 60.00 L315.13 59.00 L316.06 58.00 L316.98 57.00 L317.91 56.00 L318.83 55.00 L319.76 54.00 L320.68 53.00 L321.60 52.00 L322.53 51.00 L323.45 50.00 L324.38 49.00 L325.30 48.00 L326.22 47.00 L327.15 46.00 L328.07 45.00 L329.00 44.00 L329.92 43.00 L330.85 42.00 L331.77 41.00 L332.69 40.00 L333.62 39.00 L334.54 38.00 L335.47 37.00 L336.39 36.00 L337.31 35.00 L338.24 34.00 L339.16 33.00 L340.09 32.00 L341.01 31.00 L341.94 30.00 L342.86 29.00 L343.78 28.00 L344.71 27.00 L345.63 26.00 L346.56 25.00 L347.48 24.00 L348.40 23.00 L349.33 22.00 L350.25 21.00 L351.18 20.00 L352.10 19.00 L353.02 18.00 L353.95 17.00 L354.87 16.00 L355.80 15.00 L356.72 14.00 L357.65 13.00 L358.57 12.00 L359.49 11.00 L360.42 10.00 L361.34 9.00 L362.27 8.00 L363.19 7.00 L364.11 6.00 L365.04 5.00 L365.96 4.00 L366.89 3.00 L367.81 2.00 L368.74 1.00 L369.66 0.00 L370.58 -1.00 " style="fill:none;stroke:#000000;stroke-width:1;" /><rect x="113.52" y="273.00" width="5.00" height="5.00" style="fill:#000000;stroke:none;" /><rect x="229.04" y="148.00" width="5.00" height="5.00" style="fill:#000000;stroke:none;" /></g></svg>